<?xml version="1.0" standalone="no"?>
<!DOCTYPE svg PUBLIC "-//W3C//DTD SVG 20010904//EN"
 "http://www.w3.org/TR/2001/REC-SVG-20010904/DTD/svg10.dtd">
<svg version="1.0" xmlns="http://www.w3.org/2000/svg"
 width="700.000000pt" height="700.000000pt" viewBox="0 0 700.000000 700.000000"
 preserveAspectRatio="xMidYMid meet">
<metadata>
Created by potrace 1.11, written by Peter Selinger 2001-2013
</metadata>
<g transform="translate(0.000000,700.000000) scale(0.100000,-0.100000)"
fill="#000000" stroke="none">
<path d="M1750 5983 l0 -463 369 0 369 0 120 -302 c203 -510 272 -689 272
-699 0 -9 -144 -224 -1035 -1554 -155 -231 -438 -654 -630 -940 -192 -286
-443 -662 -560 -835 -116 -173 -215 -321 -219 -328 -6 -10 116 -12 609 -9
l616 3 82 124 c46 69 244 366 442 660 197 294 536 801 753 1125 217 325 396
592 398 594 4 4 29 -56 64 -154 32 -90 327 -879 340 -910 13 -33 154 -408 236
-630 19 -49 119 -317 223 -595 177 -472 191 -505 213 -504 12 1 115 31 228 67
297 95 950 304 1280 409 157 49 286 91 287 92 2 1 -13 49 -31 107 -19 57 -55
167 -79 244 -25 77 -73 227 -106 333 -36 110 -67 192 -74 192 -7 0 -194 -59
-417 -130 -223 -71 -408 -126 -411 -122 -4 4 -39 88 -77 187 -39 99 -105 268
-147 375 -42 107 -115 292 -161 410 -47 118 -120 305 -164 415 -43 110 -117
299 -165 420 -47 121 -90 229 -95 240 -4 11 -44 112 -88 225 -44 113 -110 282
-147 375 -37 94 -120 305 -185 470 -65 165 -144 365 -175 445 -31 80 -92 235
-136 345 -43 110 -130 331 -192 490 l-115 290 -746 0 -746 1 0 -463z"/>
<path d="M5149 5940 c0 -8 -2 -22 -4 -30 -6 -31 -43 -236 -49 -270 -3 -19 -8
-46 -11 -60 -3 -14 -8 -41 -10 -60 -3 -19 -8 -44 -10 -56 -3 -12 -7 -39 -11
-60 -3 -21 -7 -43 -8 -49 -2 -5 -6 -31 -11 -58 -4 -26 -12 -50 -18 -54 -6 -3
-102 -6 -214 -6 -229 1 -208 9 -218 -91 -3 -33 -7 -71 -9 -85 -19 -118 -27
-214 -18 -220 6 -3 96 -6 202 -5 l192 1 -6 -36 c-4 -20 -9 -54 -12 -76 -3 -22
-16 -89 -27 -150 l-22 -110 -208 -1 c-114 -1 -209 -3 -211 -5 -3 -2 -7 -33
-10 -69 -3 -36 -8 -78 -11 -95 -7 -43 -12 -90 -20 -166 l-7 -67 187 2 c103 0
192 -2 197 -5 7 -5 -6 -99 -37 -275 -26 -148 -49 -280 -52 -294 -2 -14 -10
-61 -18 -104 -9 -44 -13 -81 -10 -84 9 -9 357 -4 365 5 5 4 11 26 14 48 9 65
25 156 30 173 3 10 7 35 11 57 3 22 13 78 21 125 9 47 17 94 19 105 4 31 27
156 39 215 l7 35 194 0 c107 -1 197 -3 200 -7 5 -5 -10 -99 -60 -373 -13 -71
-26 -146 -29 -165 -3 -19 -8 -46 -11 -60 -15 -71 -25 -153 -20 -159 6 -6 355
-4 361 2 4 4 35 167 74 387 16 96 32 186 35 200 3 14 10 57 17 95 6 39 15 72
19 75 4 3 100 5 213 5 136 -1 206 3 207 10 1 5 3 19 4 30 2 11 6 47 10 79 4
33 9 68 11 79 4 21 16 137 18 177 l1 24 -195 1 -195 0 1 25 c2 63 54 334 65
341 6 3 100 5 210 5 109 -1 199 1 200 4 0 3 2 14 4 25 2 11 7 46 10 77 3 31 7
65 9 75 2 10 7 45 10 78 4 33 9 79 12 102 l5 42 -168 0 c-92 0 -181 0 -197 0
-28 1 -28 2 -21 47 3 25 8 53 10 62 1 10 6 37 10 62 4 25 9 54 11 65 2 11 7
34 9 50 3 17 8 37 10 45 2 8 7 38 11 65 3 28 8 53 10 56 1 3 6 28 9 55 4 27
13 80 21 117 8 38 14 74 14 80 0 9 -49 12 -185 12 -102 0 -185 -2 -186 -5 -2
-15 -11 -63 -24 -125 -7 -38 -16 -89 -20 -113 -3 -23 -19 -113 -35 -200 -16
-86 -32 -181 -36 -210 -3 -29 -11 -55 -16 -58 -10 -7 -387 -8 -394 -1 -2 2 2
39 11 83 8 43 17 95 20 114 3 19 16 94 29 165 27 146 36 196 43 240 2 17 8 47
13 68 4 20 5 38 1 38 -3 1 -88 2 -188 3 -158 1 -183 -1 -184 -14z m581 -1105
c0 -1 -11 -64 -25 -140 -14 -75 -28 -156 -32 -179 -3 -22 -7 -43 -10 -46 -6
-7 -393 -8 -397 -1 -2 3 2 38 9 76 7 39 20 115 30 170 9 55 18 105 20 111 2 7
69 10 204 10 111 0 201 -1 201 -1z"/>
</g>
</svg>
